<svg xmlns="http://www.w3.org/2000/svg" viewBox="0 0 448 512"><path d="M224,202.66A53.34,53.34,0,1,0,277.34,256,53.38,53.38,0,0,0,224,202.66Zm124.71-41a54,54,0,0,0-30.36-30.36C293.19,120,224,120,224,120s-69.19,0-94.35,11.32a54,54,0,0,0-30.36,30.36C88,146.81,88,176,88,176s0,29.19,11.32,54.35a54,54,0,0,0,30.36,30.36C154.81,296,224,296,224,296s69.19,0,94.35-11.32a54,54,0,0,0,30.36-30.36C360,205.19,360,176,360,176S360,146.81,348.71,161.66ZM224,272a48,48,0,1,1,48-48A48,48,0,0,1,224,272Zm76-88a12,12,0,1,1-12-12A12,12,0,0,1,300,184Z"/></svg>